<mxfile host="app.diagrams.net" modified="2022-10-16T01:24:00.491Z" agent="5.0 (X11; Linux x86_64) AppleWebKit/537.36 (KHTML, like Gecko) Chrome/104.0.0.0 Safari/537.36" etag="t04NLdWQtFzr_LhBkiYt" version="20.4.1" type="github">
  <diagram id="tokZVwopgFBX3vDGjc5-" name="PÃ¡gina-1">
    <mxGraphModel dx="693" dy="461" grid="1" gridSize="10" guides="1" tooltips="1" connect="1" arrows="1" fold="1" page="1" pageScale="1" pageWidth="827" pageHeight="1169" math="0" shadow="0">
      <root>
        <mxCell id="0" />
        <mxCell id="1" parent="0" />
        <mxCell id="WB8jmStbkChT-3xln-ix-10" value="VPC" style="points=[[0,0],[0.25,0],[0.5,0],[0.75,0],[1,0],[1,0.25],[1,0.5],[1,0.75],[1,1],[0.75,1],[0.5,1],[0.25,1],[0,1],[0,0.75],[0,0.5],[0,0.25]];outlineConnect=0;gradientColor=none;html=1;whiteSpace=wrap;fontSize=12;fontStyle=0;container=1;pointerEvents=0;collapsible=0;recursiveResize=0;shape=mxgraph.aws4.group;grIcon=mxgraph.aws4.group_vpc;strokeColor=#248814;fillColor=none;verticalAlign=top;align=left;spacingLeft=30;fontColor=#AAB7B8;dashed=0;" vertex="1" parent="1">
          <mxGeometry x="230" y="100" width="300" height="260" as="geometry" />
        </mxCell>
        <mxCell id="WB8jmStbkChT-3xln-ix-31" style="edgeStyle=orthogonalEdgeStyle;rounded=0;orthogonalLoop=1;jettySize=auto;html=1;exitX=0.5;exitY=1;exitDx=0;exitDy=0;exitPerimeter=0;startArrow=classic;startFill=1;" edge="1" parent="WB8jmStbkChT-3xln-ix-10" source="WB8jmStbkChT-3xln-ix-9" target="WB8jmStbkChT-3xln-ix-4">
          <mxGeometry relative="1" as="geometry" />
        </mxCell>
        <mxCell id="WB8jmStbkChT-3xln-ix-9" value="" style="sketch=0;points=[[0,0,0],[0.25,0,0],[0.5,0,0],[0.75,0,0],[1,0,0],[0,1,0],[0.25,1,0],[0.5,1,0],[0.75,1,0],[1,1,0],[0,0.25,0],[0,0.5,0],[0,0.75,0],[1,0.25,0],[1,0.5,0],[1,0.75,0]];outlineConnect=0;fontColor=#232F3E;gradientColor=#60A337;gradientDirection=north;fillColor=#277116;strokeColor=#ffffff;dashed=0;verticalLabelPosition=bottom;verticalAlign=top;align=center;html=1;fontSize=12;fontStyle=0;aspect=fixed;shape=mxgraph.aws4.resourceIcon;resIcon=mxgraph.aws4.s3;" vertex="1" parent="WB8jmStbkChT-3xln-ix-10">
          <mxGeometry x="199" y="30" width="78" height="78" as="geometry" />
        </mxCell>
        <mxCell id="WB8jmStbkChT-3xln-ix-4" value="" style="sketch=0;outlineConnect=0;fontColor=#232F3E;gradientColor=none;fillColor=#D45B07;strokeColor=none;dashed=0;verticalLabelPosition=bottom;verticalAlign=top;align=center;html=1;fontSize=12;fontStyle=0;aspect=fixed;pointerEvents=1;shape=mxgraph.aws4.lambda_function;" vertex="1" parent="WB8jmStbkChT-3xln-ix-10">
          <mxGeometry x="214" y="157" width="48" height="48" as="geometry" />
        </mxCell>
        <mxCell id="WB8jmStbkChT-3xln-ix-29" style="edgeStyle=orthogonalEdgeStyle;rounded=0;orthogonalLoop=1;jettySize=auto;html=1;exitX=1;exitY=0.5;exitDx=0;exitDy=0;exitPerimeter=0;startArrow=classic;startFill=1;" edge="1" parent="WB8jmStbkChT-3xln-ix-10" source="WB8jmStbkChT-3xln-ix-6" target="WB8jmStbkChT-3xln-ix-4">
          <mxGeometry relative="1" as="geometry" />
        </mxCell>
        <mxCell id="WB8jmStbkChT-3xln-ix-6" value="" style="sketch=0;points=[[0,0,0],[0.25,0,0],[0.5,0,0],[0.75,0,0],[1,0,0],[0,1,0],[0.25,1,0],[0.5,1,0],[0.75,1,0],[1,1,0],[0,0.25,0],[0,0.5,0],[0,0.75,0],[1,0.25,0],[1,0.5,0],[1,0.75,0]];outlineConnect=0;fontColor=#232F3E;gradientColor=#FF4F8B;gradientDirection=north;fillColor=#BC1356;strokeColor=#ffffff;dashed=0;verticalLabelPosition=bottom;verticalAlign=top;align=center;html=1;fontSize=12;fontStyle=0;aspect=fixed;shape=mxgraph.aws4.resourceIcon;resIcon=mxgraph.aws4.api_gateway;" vertex="1" parent="WB8jmStbkChT-3xln-ix-10">
          <mxGeometry x="60" y="142" width="78" height="78" as="geometry" />
        </mxCell>
        <mxCell id="WB8jmStbkChT-3xln-ix-20" value="SVM" style="text;html=1;align=center;verticalAlign=middle;resizable=0;points=[];autosize=1;strokeColor=none;fillColor=none;" vertex="1" parent="WB8jmStbkChT-3xln-ix-10">
          <mxGeometry x="214" y="209" width="50" height="30" as="geometry" />
        </mxCell>
        <mxCell id="WB8jmStbkChT-3xln-ix-32" value="dispara a..." style="text;html=1;align=center;verticalAlign=middle;resizable=0;points=[];autosize=1;strokeColor=none;fillColor=none;" vertex="1" parent="WB8jmStbkChT-3xln-ix-10">
          <mxGeometry x="128" y="100" width="80" height="30" as="geometry" />
        </mxCell>
        <mxCell id="WB8jmStbkChT-3xln-ix-23" value="request&lt;br&gt;&lt;br&gt;response" style="text;html=1;align=center;verticalAlign=middle;resizable=0;points=[];autosize=1;strokeColor=none;fillColor=none;" vertex="1" parent="WB8jmStbkChT-3xln-ix-10">
          <mxGeometry x="138.5" y="157" width="70" height="60" as="geometry" />
        </mxCell>
        <mxCell id="WB8jmStbkChT-3xln-ix-25" value="" style="points=[[0.35,0,0],[0.98,0.51,0],[1,0.71,0],[0.67,1,0],[0,0.795,0],[0,0.65,0]];verticalLabelPosition=bottom;sketch=0;html=1;verticalAlign=top;aspect=fixed;align=center;pointerEvents=1;shape=mxgraph.cisco19.user;fillColor=#005073;strokeColor=none;" vertex="1" parent="1">
          <mxGeometry x="80" y="256" width="50" height="50" as="geometry" />
        </mxCell>
        <mxCell id="WB8jmStbkChT-3xln-ix-34" style="edgeStyle=orthogonalEdgeStyle;rounded=0;orthogonalLoop=1;jettySize=auto;html=1;exitX=0;exitY=0.5;exitDx=0;exitDy=0;exitPerimeter=0;startArrow=classic;startFill=1;" edge="1" parent="1" source="WB8jmStbkChT-3xln-ix-6" target="WB8jmStbkChT-3xln-ix-25">
          <mxGeometry relative="1" as="geometry" />
        </mxCell>
        <mxCell id="WB8jmStbkChT-3xln-ix-36" value="send element id of&amp;nbsp;&lt;br&gt;the image stored in&amp;nbsp;&lt;br&gt;S3 to be predicted" style="text;html=1;align=center;verticalAlign=middle;resizable=0;points=[];autosize=1;strokeColor=none;fillColor=none;" vertex="1" parent="1">
          <mxGeometry x="150" y="280" width="130" height="60" as="geometry" />
        </mxCell>
        <mxCell id="WB8jmStbkChT-3xln-ix-38" value="methods:&lt;br&gt;POST&lt;br&gt;GET" style="text;html=1;align=center;verticalAlign=middle;resizable=0;points=[];autosize=1;strokeColor=none;fillColor=none;" vertex="1" parent="1">
          <mxGeometry x="150" y="180" width="70" height="60" as="geometry" />
        </mxCell>
      </root>
    </mxGraphModel>
  </diagram>
</mxfile>
